<svg xmlns="http://www.w3.org/2000/svg" xmlns:xlink="http://www.w3.org/1999/xlink" width="100.269" height="93.49" viewBox="0 0 100.269 93.49">
  <defs>
    <linearGradient id="linear-gradient" x1="0.5" y1="3.28" x2="0.5" y2="1.131" gradientUnits="objectBoundingBox">
      <stop offset="0" stop-color="#05a1e8"/>
      <stop offset="1" stop-color="#0562e8"/>
    </linearGradient>
    <linearGradient id="linear-gradient-2" x1="0.499" y1="0.046" x2="0.438" y2="2.51" xlink:href="#linear-gradient"/>
    <linearGradient id="linear-gradient-3" x1="1.218" y1="1.388" x2="0.748" y2="0.64" xlink:href="#linear-gradient"/>
    <linearGradient id="linear-gradient-5" x1="0.593" y1="3.491" x2="0.473" y2="0.265" xlink:href="#linear-gradient"/>
    <linearGradient id="linear-gradient-6" x1="0.498" y1="0.079" x2="0.437" y2="2.543" xlink:href="#linear-gradient"/>
    <linearGradient id="linear-gradient-7" x1="0.499" y1="0.061" x2="0.481" y2="1.914" xlink:href="#linear-gradient"/>
    <linearGradient id="linear-gradient-8" x1="0.598" y1="1.679" x2="0.529" y2="0.49" xlink:href="#linear-gradient"/>
    <linearGradient id="linear-gradient-9" x1="-0.286" y1="1.468" x2="0.346" y2="0.481" xlink:href="#linear-gradient"/>
    <linearGradient id="linear-gradient-10" x1="0.499" y1="3.178" x2="0.499" y2="0.381" gradientUnits="objectBoundingBox">
      <stop offset="0" stop-color="#d35400"/>
      <stop offset="1" stop-color="#ffb62d"/>
    </linearGradient>
    <linearGradient id="linear-gradient-11" x1="0.499" y1="2.978" x2="0.499" y2="0.18" xlink:href="#linear-gradient-10"/>
    <linearGradient id="linear-gradient-12" x1="0.499" y1="2.281" x2="0.499" y2="-0.516" xlink:href="#linear-gradient-10"/>
    <linearGradient id="linear-gradient-13" x1="0.501" y1="2.978" x2="0.501" y2="0.18" xlink:href="#linear-gradient-10"/>
  </defs>
  <g id="About_us_14_Our_core_Values_Excellence" data-name="About us_14 Our core Values Excellence" transform="translate(0.13 -4.48)" style="mix-blend-mode: normal;isolation: isolate">
    <path id="Path_29635" data-name="Path 29635" d="M28.95,34.88,15.09,54.36H40.16Z" fill="url(#linear-gradient)"/>
    <path id="Path_29636" data-name="Path 29636" d="M51.36,34.88H28.95L40.16,54.36Z" fill="url(#linear-gradient-2)"/>
    <path id="Path_29637" data-name="Path 29637" d="M15.09,54.36,51.36,97.97,40.16,54.36Z" fill="url(#linear-gradient-3)"/>
    <path id="Path_29638" data-name="Path 29638" d="M87.64,54.36,73.78,34.88h-.01L62.57,54.36Z" fill="url(#linear-gradient)"/>
    <path id="Path_29639" data-name="Path 29639" d="M51.36,34.88h0L40.16,54.36H62.57Z" fill="url(#linear-gradient-5)"/>
    <path id="Path_29640" data-name="Path 29640" d="M73.77,34.88H51.36L62.57,54.36Z" fill="url(#linear-gradient-6)"/>
    <path id="Path_29641" data-name="Path 29641" d="M51.36,54.36H40.16l11.2,43.61h0L62.57,54.36Z" fill="url(#linear-gradient-7)"/>
    <path id="Path_29642" data-name="Path 29642" d="M51.36,54.36H40.16l11.2,43.61h0L62.57,54.36Z" fill="url(#linear-gradient-8)"/>
    <path id="Path_29643" data-name="Path 29643" d="M51.36,54.36H40.16l11.2,43.61h0L62.57,54.36Z" opacity="0.25"/>
    <path id="Path_29644" data-name="Path 29644" d="M62.57,54.36,51.36,97.97,87.64,54.36Z" fill="url(#linear-gradient-9)"/>
    <rect id="Rectangle_6577" data-name="Rectangle 6577" width="4.73" height="19.29" rx="2.36" transform="translate(48.75 4.48)" fill="url(#linear-gradient-10)"/>
    <rect id="Rectangle_6578" data-name="Rectangle 6578" width="4.73" height="19.29" rx="2.36" transform="matrix(0.911, -0.413, 0.413, 0.911, 20.131, 10.176)" fill="url(#linear-gradient-11)"/>
    <rect id="Rectangle_6579" data-name="Rectangle 6579" width="4.73" height="19.29" rx="2.36" transform="translate(-0.13 28.045) rotate(-56.38)" fill="url(#linear-gradient-12)"/>
    <rect id="Rectangle_6580" data-name="Rectangle 6580" width="4.73" height="19.29" rx="2.36" transform="matrix(-0.911, -0.413, 0.413, -0.911, 71.913, 27.732)" fill="url(#linear-gradient-13)"/>
    <rect id="Rectangle_6581" data-name="Rectangle 6581" width="4.73" height="19.29" rx="2.36" transform="translate(84.075 38.723) rotate(-123.62)" fill="url(#linear-gradient-12)"/>
    <path id="Path_29645" data-name="Path 29645" d="M62.57,54.36l11.2,16.67L87.64,54.36Z" opacity="0.25"/>
    <path id="Path_29646" data-name="Path 29646" d="M40.16,54.36,28.95,71.03,15.09,54.36Z" opacity="0.25"/>
  </g>
</svg>
