<svg xmlns="http://www.w3.org/2000/svg" width="41.674" height="41.674" viewBox="0 0 41.674 41.674">
  <path id="iconfinder_linkedin_circle_color_107178" d="M36.531,34.656V26.521c0-4.358-2.327-6.387-5.429-6.387a4.68,4.68,0,0,0-4.25,2.343v-2.01H22.137c.063,1.331,0,14.188,0,14.188h4.716V26.732a3.216,3.216,0,0,1,.156-1.15,2.579,2.579,0,0,1,2.418-1.725c1.707,0,2.389,1.3,2.389,3.208v7.591h4.715ZM17.168,18.532a2.459,2.459,0,1,0,.031-4.9,2.458,2.458,0,1,0-.061,4.9Zm7.669,27.142A20.837,20.837,0,1,1,45.674,24.837,20.837,20.837,0,0,1,24.837,45.674ZM19.526,34.656V20.468H14.811V34.656Z" transform="translate(-4 -4)" fill="#fff" fill-rule="evenodd"/>
</svg>
