<svg xmlns="http://www.w3.org/2000/svg" width="41.759" height="41.759" viewBox="0 0 41.759 41.759">
  <g id="iconfinder_youtube_1632538" style="mix-blend-mode: normal;isolation: isolate">
    <path id="Path_10450" data-name="Path 10450" d="M41.759,20.879A20.879,20.879,0,1,1,20.879,0,20.878,20.878,0,0,1,41.759,20.879Z" fill="#fff"/>
    <g id="Group_609" data-name="Group 609" transform="translate(9.832 12.829)">
      <path id="Path_10451" data-name="Path 10451" d="M142.616,160.342c-.188-1.623-.579-2.1-.856-2.316a4.566,4.566,0,0,0-2.308-.538c-1.713-.114-4.624-.188-7.764-.188s-6.052.065-7.764.188a4.566,4.566,0,0,0-2.308.538c-.277.22-.661.693-.856,2.316a60.4,60.4,0,0,0,0,10.016c.2,1.623.579,2.1.856,2.316a4.566,4.566,0,0,0,2.308.538c1.713.114,4.616.188,7.764.188s6.052-.073,7.764-.188a4.566,4.566,0,0,0,2.308-.538c.277-.212.661-.693.856-2.316A60.391,60.391,0,0,0,142.616,160.342ZM129,168.849v-7.006l6.72,3.5Z" transform="translate(-120.55 -157.3)" fill="#1450a8"/>
    </g>
  </g>
</svg>
