<svg xmlns="http://www.w3.org/2000/svg" width="41.759" height="41.759" viewBox="0 0 41.759 41.759">
  <g id="iconfinder_social-whatsapp-circle_4017334" style="mix-blend-mode: normal;isolation: isolate">
    <ellipse id="Ellipse_414" data-name="Ellipse 414" cx="20.879" cy="20.879" rx="20.879" ry="20.879" transform="translate(0)" fill="#fff"/>
    <g id="Group_601" data-name="Group 601" transform="translate(7.724 7.594)">
      <path id="Path_7457" data-name="Path 7457" d="M46.355,27.628a13.032,13.032,0,0,0-20.507,15.72L24,50.1l6.906-1.811a13.03,13.03,0,0,0,6.226,1.585h.006a13.035,13.035,0,0,0,9.217-22.246M37.139,47.674h0a10.814,10.814,0,0,1-5.512-1.509l-.4-.235L27.128,47l1.093-4-.257-.411a10.829,10.829,0,1,1,9.175,5.075m5.94-8.11c-.326-.163-1.926-.95-2.225-1.059s-.515-.163-.732.163-.841,1.059-1.031,1.277-.379.245-.705.081a8.88,8.88,0,0,1-2.617-1.616,9.788,9.788,0,0,1-1.811-2.255c-.19-.326-.02-.5.143-.664.147-.146.326-.38.488-.57a2.241,2.241,0,0,0,.325-.543.6.6,0,0,0-.027-.57c-.082-.163-.733-1.766-1-2.418-.265-.635-.533-.549-.732-.559s-.407-.012-.624-.012a1.2,1.2,0,0,0-.868.408,3.652,3.652,0,0,0-1.139,2.716,6.33,6.33,0,0,0,1.329,3.367,14.516,14.516,0,0,0,5.561,4.916,18.95,18.95,0,0,0,1.856.686,4.458,4.458,0,0,0,2.051.129,3.353,3.353,0,0,0,2.2-1.548,2.711,2.711,0,0,0,.189-1.548c-.082-.136-.3-.218-.624-.381" transform="translate(-24 -23.807)" fill="#1450a8"/>
    </g>
  </g>
</svg>
