<svg xmlns="http://www.w3.org/2000/svg" xmlns:xlink="http://www.w3.org/1999/xlink" width="122.375" height="132.32" viewBox="0 0 122.375 132.32">
  <defs>
    <linearGradient id="linear-gradient" y1="0.5" x2="1" y2="0.5" gradientUnits="objectBoundingBox">
      <stop offset="0" stop-color="#ebf2fc"/>
      <stop offset="1" stop-color="#84adef"/>
    </linearGradient>
    <clipPath id="clip-path">
      <rect id="Rectangle_8038" data-name="Rectangle 8038" width="29.662" height="64.864" transform="matrix(0.968, 0.253, -0.253, 0.968, 16.394, 0)" fill="none"/>
    </clipPath>
    <clipPath id="clip-path-2">
      <rect id="Rectangle_8039" data-name="Rectangle 8039" width="29.662" height="64.864" transform="translate(36.86 0) rotate(34.63)" fill="none"/>
    </clipPath>
  </defs>
  <g id="_05_-_Compliance-Icon_003" data-name="05 - Compliance-Icon_003" transform="translate(-3.06 -3.901)" style="mix-blend-mode: normal;isolation: isolate">
    <ellipse id="Ellipse_11895" data-name="Ellipse 11895" cx="58.433" cy="58.831" rx="58.433" ry="58.831" transform="translate(3.06 10.006)" opacity="0.25" fill="url(#linear-gradient)"/>
    <g id="Group_10440" data-name="Group 10440" transform="translate(12.825 50.507)" clip-path="url(#clip-path)">
      <path id="Path_32869" data-name="Path 32869" d="M69.164,77.992c-.113.453-.239.907-.39,1.36s-.239.743-.378,1.1a24.2,24.2,0,0,1-.995,2.342c-.164.365-.34.718-.529,1.07A26.173,26.173,0,0,1,64.191,87.9c-.264.34-.541.68-.818.982a24.525,24.525,0,0,1-2.14,2.14c-.353.315-.705.617-1.1.906a20.986,20.986,0,0,1-2.694,1.914c-.491.3-.982.567-1.486.818a22.752,22.752,0,0,1-3.639,1.486,21.187,21.187,0,0,1-2.291.6A22.662,22.662,0,0,1,39.6,96.5L34.34,95.1,47.157,46l5.263,1.372a22.864,22.864,0,0,1,9.858,5.452,19.013,19.013,0,0,1,1.574,1.612,22.184,22.184,0,0,1,2.38,3.223c.3.453.567.932.831,1.423a25.255,25.255,0,0,1,2.04,5.036c.113.415.227.844.327,1.259a25.181,25.181,0,0,1,.629,5.036c0,.39,0,.793,0,1.259a24.588,24.588,0,0,1-.353,3.777,5.107,5.107,0,0,1-.214,1.146C69.4,76.972,69.3,77.563,69.164,77.992Z" transform="translate(-4.723 -34.673)" fill="#cc9005"/>
      <path id="Path_32870" data-name="Path 32870" d="M63.122,72.847q-.176.567-.378,1.1L56.26,72.231l.3-1.121Z" transform="translate(0.954 -28.169)" fill="#a97a05"/>
      <path id="Path_32871" data-name="Path 32871" d="M62.366,75.66c-.164.365-.34.718-.529,1.07L53.88,74.653l.3-1.133Z" transform="translate(0.338 -27.545)" fill="#a97a05"/>
      <path id="Path_32872" data-name="Path 32872" d="M59.852,79.728c-.264.34-.541.68-.818.982l-7.844-2.04.3-1.121Z" transform="translate(-0.359 -26.501)" fill="#a97a05"/>
      <path id="Path_32873" data-name="Path 32873" d="M57.619,82.242c-.353.315-.705.617-1.1.907L48.39,81.033l.29-1.133Z" transform="translate(-1.084 -25.892)" fill="#a97a05"/>
      <path id="Path_32874" data-name="Path 32874" d="M54.55,84.471c-.491.3-.982.567-1.486.818L45.51,83.3l.29-1.121Z" transform="translate(-1.83 -25.302)" fill="#a97a05"/>
      <path id="Path_32875" data-name="Path 32875" d="M50.436,86.268a21.187,21.187,0,0,1-2.291.6L41.61,85.161l.29-1.121Z" transform="translate(-2.84 -24.82)" fill="#a97a05"/>
      <path id="Path_32876" data-name="Path 32876" d="M63.7,70.993,56.69,69.231l.3-1.121,6.925,1.8C63.854,70.238,63.791,70.615,63.7,70.993Z" transform="translate(1.066 -28.946)" fill="#a97a05"/>
      <path id="Path_32877" data-name="Path 32877" d="M64.173,67.056,57.06,65.231l.29-1.121L64.173,65.9C64.186,66.25,64.186,66.653,64.173,67.056Z" transform="translate(1.161 -29.982)" fill="#a97a05"/>
      <path id="Path_32878" data-name="Path 32878" d="M63.679,62.069,56.54,60.231l.29-1.121L63.414,60.8A5.87,5.87,0,0,0,63.679,62.069Z" transform="translate(1.027 -31.277)" fill="#a97a05"/>
      <path id="Path_32879" data-name="Path 32879" d="M61.97,57.07,54,54.993l.3-1.133,6.824,1.788A12.1,12.1,0,0,1,61.97,57.07Z" transform="translate(0.369 -32.637)" fill="#a97a05"/>
      <path id="Path_32880" data-name="Path 32880" d="M59.365,53.365,51.66,51.351l.29-1.121,5.842,1.523A19.012,19.012,0,0,1,59.365,53.365Z" transform="translate(-0.237 -33.577)" fill="#a97a05"/>
      <path id="Path_32881" data-name="Path 32881" d="M67.561,76.758c-3.576,13.56-16.783,21.831-29.587,18.495s-20.32-17.047-16.8-30.594S37.987,42.827,50.791,46.151,71.1,63.211,67.561,76.758Z" transform="translate(-8.357 -34.824)" fill="#ffcf00"/>
      <path id="Path_32882" data-name="Path 32882" d="M62.777,74.852c-2.933,11.243-13.925,18.1-24.551,15.335S21.355,76.048,24.289,64.792,38.226,46.675,48.852,49.457,65.723,63.6,62.777,74.852Z" transform="translate(-7.514 -33.938)" fill="#fbbb00"/>
      <path id="Path_32883" data-name="Path 32883" d="M40.279,88.4C29.64,85.635,23.408,74.266,26.341,63.01a21.68,21.68,0,0,1,8.4-12.25,21.542,21.542,0,0,0-10.45,13.534c-2.933,11.256,3.3,22.662,13.937,25.394A19.364,19.364,0,0,0,54.392,86.6a19.2,19.2,0,0,1-14.114,1.8Z" transform="translate(-7.514 -33.44)" fill="#c47f0b"/>
      <path id="Path_32884" data-name="Path 32884" d="M37.109,85.628l1.108-4.23a11.457,11.457,0,0,1-5.577-3.425l1.687-2.518a10.4,10.4,0,0,0,5.225,3.286c2.808.743,5.149-.478,5.779-2.871s-.567-4.13-3.173-6.144c-3.588-2.732-5.577-5.3-4.633-8.952a6.937,6.937,0,0,1,7.73-5.175l1.108-4.23,2.518.642-1.07,4.054a10.588,10.588,0,0,1,4.772,2.808l-1.712,2.518a9.619,9.619,0,0,0-4.621-2.719c-3.047-.793-4.7.831-5.124,2.518-.567,2.178.6,3.651,3.651,6.056,3.613,2.82,5.112,5.527,4.13,9.254A7.365,7.365,0,0,1,40.8,81.989l-1.133,4.356Z" transform="translate(-5.164 -33.282)" fill="#cc9005"/>
    </g>
    <path id="Path_32885" data-name="Path 32885" d="M69.112,4.939c8.259,2.442,11.331,7.265,9.594,15.889a23.052,23.052,0,0,1-2.4,6.509c-2.845,5.175-5.628,10.374-8.423,15.587-.252.466-.73.869-.541,1.5h0c-.415.063-.453.3-.327.63h0c-.315-.063-.315.164-.315.365L65,48.022c-3.6-1.75-5.577-1.4-8.184,1.5.113-1.5.151-3.009.34-4.495a14.97,14.97,0,0,0-.718-7.63C54.218,31.5,52.67,25.385,53.3,18.914,54.029,11.5,60.815,3.4,69.112,4.939ZM62.44,33.569c1.473,2.077,3.853,2.09,5.666-.227a23.745,23.745,0,0,0,5.212-15.687A6.811,6.811,0,0,0,67.5,11.07a3.689,3.689,0,0,0-3.777.5,11.117,11.117,0,0,0-5.137,7.667,19.489,19.489,0,0,0,1.46,10.324,8.2,8.2,0,0,0,2.392,4Z" transform="translate(15.804 0.22)" fill="#ff6d38"/>
    <path id="Path_32886" data-name="Path 32886" d="M97.064,23.045A12.074,12.074,0,0,1,103.12,41.93c-2.959,3.84-7.1,5.678-11.759,6.547a48.976,48.976,0,0,1-14.793.1,7.554,7.554,0,0,0-3.7.378c-2.984,1.108-6.005,2.09-9,3.135-.076-.441-.138-.869-.214-1.259a6.182,6.182,0,0,0,.277-5.691c.252-.831.982-1.259,1.561-1.788,5.036-4.532,10.072-8.977,15.02-13.547C85.167,25.437,90.152,21.9,97.064,23.045Zm-.919,6.106-.34-.3a6.6,6.6,0,0,0-3.286-.113A21.4,21.4,0,0,0,78.871,38.43a3.009,3.009,0,0,0-.6,2.417c-.441,1.637.655,2.518,1.826,3A15.322,15.322,0,0,0,95.2,42.585a9.531,9.531,0,0,0,4.872-9.115A4.5,4.5,0,0,0,96.107,29.1Z" transform="translate(19.828 6.099)" fill="#ff6d38"/>
    <path id="Path_32887" data-name="Path 32887" d="M11.014,83.09c-1.586-1.259-1.146-2.518-.529-4.293a27.333,27.333,0,0,1,9.065-12.855,11,11,0,0,0,1.8-1.838L39.9,46.729c1.8-1.687,3.613-3.374,5.389-5.1a2.279,2.279,0,0,1,1.725-.73H64.422c.415.856,1.335,1.183,1.926,1.826.227.239,1.007.4.315.969-.327-.453-.831-.29-1.259-.29l-15.738.353A2.581,2.581,0,0,0,48,44.375L33.425,57.141c-3.777,3.273-7.554,6.509-11.331,9.833-3.336,3.009-7.327,5.527-8.511,10.412-.428,1.788-1.674,3.324-1.788,5.25h0c-.239,0-.315.164-.34.365Z" transform="translate(1.778 12.278)" fill="#d2e4f9"/>
    <path id="Path_32888" data-name="Path 32888" d="M69.82,5.159c-8.3-1.536-15.108,6.559-15.813,13.975-.63,6.471.856,12.59,3.16,18.407a14.97,14.97,0,0,1,.718,7.63c-.189,1.486-.227,3-.34,4.495l-.415.944c-1.045,0-1.851-.73-2.845-.881.176-2.971.3-5.943.567-8.914a5.955,5.955,0,0,0-.567-3.2c-2.518-5.477-4.255-11.167-3.777-17.261s2.38-11.6,8.2-14.819A11.457,11.457,0,0,1,69.82,5.159Z" transform="translate(14.763 0)" fill="#932924"/>
    <path id="Path_32889" data-name="Path 32889" d="M97.344,23.381c-6.912-1.1-11.9,2.442-16.619,6.773-4.961,4.558-10.06,8.964-15.02,13.5a4.685,4.685,0,0,0-1.561,1.788c-.529-.617-1.045-1.259-1.574-1.838.579-.869,1.146-1.737,1.712-2.606a.3.3,0,0,0,.315-.365h0c.353-.088.655-.189.327-.63h0c.692.264.906-.39,1.259-.718,4.709-4.394,9.115-9.14,14.076-13.257a17.437,17.437,0,0,1,11.81-4.495,7.781,7.781,0,0,1,5.275,1.851Z" transform="translate(19.548 5.623)" fill="#932924"/>
    <path id="Path_32890" data-name="Path 32890" d="M66.161,66.691c-2.682-1.347-5.275-2.858-7.831-4.444.415-1.473.806-2.946,1.259-4.419a90.007,90.007,0,0,1,2.8-9.732l.755-.466c1.6,4.079,3.173,8.171,4.809,12.238a2.619,2.619,0,0,1,0,2.153C67.307,63.569,66.728,65.143,66.161,66.691Z" transform="translate(16.97 13.832)" fill="#d2e4f9"/>
    <path id="Path_32891" data-name="Path 32891" d="M64.463,49.554l-.755.466-3.148.73a7.554,7.554,0,0,1-7.277-5.137L55.461,43.9c.692-.567-.088-.73-.315-.969-.592-.642-1.511-.969-1.926-1.826l.34-.806c.995.151,1.8.919,2.845.881-.692,3.966.718,6.585,4.041,7.39,2.455.592,4.268-.6,5.842-2.3.076.441.138.869.214,1.259a6.509,6.509,0,0,1-2.04,2.027Z" transform="translate(15.48 11.36)" fill="#9bb5ce"/>
    <path id="Path_32892" data-name="Path 32892" d="M35.714,65.145c-5.036,3.563-10.072,7.1-15.108,10.664-2.682,1.889-5.326,3.777-7.995,5.678-.365.252-.655.642-1.171.63.113-1.926,1.36-3.462,1.788-5.25,1.183-4.86,5.175-7.39,8.549-10.412,3.777-3.324,7.554-6.559,11.331-9.833L47.624,43.905a2.581,2.581,0,0,1,1.662-.617l15.738-.353c.428,0,.932-.164,1.259.29L64.1,44.938c-4.608,3.248-9.229,6.471-13.849,9.732-3.525,2.518-7,5.036-10.513,7.554a26.062,26.062,0,0,0-4.029,2.921Z" transform="translate(2.171 12.848)" fill="#d2e4f9"/>
    <path id="Path_32893" data-name="Path 32893" d="M56.36,60.7q1.7-5.968,3.387-11.948l3.148-.73a90,90,0,0,0-2.82,9.707c-.428,1.473-.818,2.946-1.259,4.419Z" transform="translate(16.289 13.845)" fill="#d2e4f9"/>
    <path id="Path_32894" data-name="Path 32894" d="M11.014,83.09c-1.586-1.259-1.146-2.518-.529-4.293a27.333,27.333,0,0,1,9.065-12.855,11,11,0,0,0,1.8-1.838L39.9,46.729c1.8-1.687,3.613-3.374,5.389-5.1a2.279,2.279,0,0,1,1.725-.73H64.422c.415.856,1.335,1.183,1.926,1.826.227.239,1.007.4.315.969-.327-.453-.831-.29-1.259-.29l-15.738.353A2.581,2.581,0,0,0,48,44.375L33.425,57.141c-3.777,3.273-7.554,6.509-11.331,9.833-3.336,3.009-7.327,5.527-8.511,10.412-.428,1.788-1.674,3.324-1.788,5.25h0c-.239,0-.315.164-.34.365Z" transform="translate(1.778 12.278)" opacity="0.25"/>
    <path id="Path_32895" data-name="Path 32895" d="M56.36,60.7q1.7-5.968,3.387-11.948l3.148-.73a90,90,0,0,0-2.82,9.707c-.428,1.473-.818,2.946-1.259,4.419Z" transform="translate(16.289 13.845)" opacity="0.25"/>
    <path id="Path_32896" data-name="Path 32896" d="M65.669,46.768c-1.574,1.7-3.387,2.9-5.842,2.3-3.324-.806-4.734-3.425-4.041-7.39l.415-.944c2.606-2.9,4.583-3.248,8.184-1.5l1.561,1.838a6.182,6.182,0,0,1-.277,5.691Z" transform="translate(16.16 10.706)" fill="#fdfdfd"/>
    <path id="Path_32897" data-name="Path 32897" d="M60.53,32.282a5.54,5.54,0,0,0,2.908-2.317,26.326,26.326,0,0,0,4.684-13.534A8.171,8.171,0,0,0,65.6,9.72a6.811,6.811,0,0,1,5.8,6.648,23.745,23.745,0,0,1-5.25,15.687C64.383,34.371,62,34.359,60.53,32.282Z" transform="translate(17.672 1.507)" fill="#932924"/>
    <path id="Path_32898" data-name="Path 32898" d="M64.51,36.22c.327.441,0,.541-.327.63C64.057,36.522,64.095,36.283,64.51,36.22Z" transform="translate(18.515 9.953)" fill="#fdfdfd"/>
    <path id="Path_32899" data-name="Path 32899" d="M64.245,36.7a.319.319,0,0,1-.315.365C63.93,36.866,63.93,36.639,64.245,36.7Z" transform="translate(18.453 10.095)" fill="#fdfdfd"/>
    <path id="Path_32900" data-name="Path 32900" d="M75.28,39.509c5.854,3.878,15.511,1.058,18.331-5.351.969-2.2,1.183-4.356-.478-6.358A4.5,4.5,0,0,1,97.1,32.169a9.531,9.531,0,0,1-4.872,9.115,15.322,15.322,0,0,1-15.108,1.259C75.935,41.976,74.84,41.146,75.28,39.509Z" transform="translate(22.815 7.524)" fill="#932924"/>
    <path id="Path_32901" data-name="Path 32901" d="M89.53,27.872l-.34-.3Z" transform="translate(26.443 7.286)" fill="#932924"/>
    <g id="Group_10441" data-name="Group 10441" transform="translate(40.634 65.992)" clip-path="url(#clip-path-2)">
      <path id="Path_32902" data-name="Path 32902" d="M72.841,89.039c-.277.39-.554.781-.844,1.146s-.478.617-.73.906c-.554.655-1.121,1.259-1.725,1.863l-.869.818a26.666,26.666,0,0,1-3.9,2.883c-.365.227-.743.441-1.108.642a24.627,24.627,0,0,1-2.745,1.259c-.428.176-.881.353-1.335.491a21.869,21.869,0,0,1-3.21.831q-.831.164-1.662.264a22.888,22.888,0,0,1-3.928.151,20.927,20.927,0,0,1-2.367-.214A22.662,22.662,0,0,1,38.71,96.3l-4.469-3.1L63.059,51.47l4.482,3.085a22.75,22.75,0,0,1,7.39,8.5,18.6,18.6,0,0,1,.919,2.052A22.272,22.272,0,0,1,77,68.958c.126.516.214,1.058.29,1.6a24.941,24.941,0,0,1,.189,5.5,8.027,8.027,0,0,1-.138,1.259,25.042,25.042,0,0,1-1.146,5.036c-.126.378-.252.755-.4,1.133a24.991,24.991,0,0,1-1.649,3.475c-.189.34-.378.667-.592,1.007S73.081,88.649,72.841,89.039Z" transform="translate(-30.016 -48.741)" fill="#cc9005"/>
      <path id="Path_32903" data-name="Path 32903" d="M65.515,83.007c-.239.315-.478.617-.73.906L59.27,80.137l.667-.957Z" transform="translate(-23.533 -41.564)" fill="#a97a05"/>
      <path id="Path_32904" data-name="Path 32904" d="M63.85,85.409l-.869.818L56.22,81.557l.655-.957Z" transform="translate(-24.323 -41.196)" fill="#a97a05"/>
      <path id="Path_32905" data-name="Path 32905" d="M60.091,88.37c-.365.227-.743.441-1.108.642l-6.673-4.6.667-.957Z" transform="translate(-25.336 -40.455)" fill="#a97a05"/>
      <path id="Path_32906" data-name="Path 32906" d="M57.129,89.96c-.428.176-.881.353-1.335.491L48.87,85.667l.667-.957Z" transform="translate(-26.227 -40.132)" fill="#a97a05"/>
      <path id="Path_32907" data-name="Path 32907" d="M53.493,90.992q-.831.164-1.662.264L45.36,86.787l.655-.957Z" transform="translate(-27.136 -39.841)" fill="#a97a05"/>
      <path id="Path_32908" data-name="Path 32908" d="M49.009,91.278a20.925,20.925,0,0,1-2.367-.214L41.09,87.287l.655-.957Z" transform="translate(-28.242 -39.712)" fill="#a97a05"/>
      <path id="Path_32909" data-name="Path 32909" d="M66.685,81.494,60.73,77.377l.655-.957,5.892,4.067C67.088,80.827,66.9,81.154,66.685,81.494Z" transform="translate(-23.155 -42.279)" fill="#a97a05"/>
      <path id="Path_32910" data-name="Path 32910" d="M68.486,77.947l-6.056-4.18.655-.957,5.8,4.016C68.763,77.191,68.637,77.569,68.486,77.947Z" transform="translate(-22.715 -43.214)" fill="#a97a05"/>
      <path id="Path_32911" data-name="Path 32911" d="M69.718,73.059,63.65,68.854l.655-.944,5.552,3.777C69.819,72.216,69.781,72.656,69.718,73.059Z" transform="translate(-22.399 -44.483)" fill="#a97a05"/>
      <path id="Path_32912" data-name="Path 32912" d="M69.821,67.785,63.06,63.127l.667-.957,5.8,4.016C69.657,66.7,69.745,67.244,69.821,67.785Z" transform="translate(-22.551 -45.97)" fill="#a97a05"/>
      <path id="Path_32913" data-name="Path 32913" d="M68.637,63.427l-6.547-4.52.667-.957,4.96,3.425a18.589,18.589,0,0,1,.919,2.052Z" transform="translate(-22.803 -47.063)" fill="#a97a05"/>
      <path id="Path_32914" data-name="Path 32914" d="M70.421,86.777C62.439,98.3,47.192,101.546,36.3,94.029s-13.27-22.952-5.338-34.484S54.2,44.777,65.1,52.306,78.378,75.257,70.421,86.777Z" transform="translate(-32.078 -49.577)" fill="#ffcf00"/>
      <path id="Path_32915" data-name="Path 32915" d="M66.217,83.579c-6.61,9.556-19.288,12.25-28.328,6.006s-11-19.049-4.407-28.617,19.288-12.238,28.328-5.993S72.827,74.035,66.217,83.579Z" transform="translate(-31.223 -48.707)" fill="#fbbb00"/>
      <path id="Path_32916" data-name="Path 32916" d="M40.256,89.057c-9.04-6.3-11-19.049-4.407-28.617A21.844,21.844,0,0,1,47.924,51.79a21.567,21.567,0,0,0-14.441,9.153c-6.6,9.569-4.633,22.385,4.407,28.617a19.389,19.389,0,0,0,16.254,2.631,19.175,19.175,0,0,1-13.887-3.135Z" transform="translate(-31.223 -48.658)" fill="#c47f0b"/>
      <path id="Path_32917" data-name="Path 32917" d="M38.489,85.2l2.518-3.6a11.432,11.432,0,0,1-4.067-5.124l2.518-1.826a10.45,10.45,0,0,0,3.777,4.885c2.392,1.649,5.036,1.259,6.408-.73s.881-4.067-.869-6.862c-2.518-3.777-3.437-6.887-1.259-9.984a6.95,6.95,0,0,1,8.914-2.216l2.518-3.6,1.989,1.435L58.608,61a10.412,10.412,0,0,1,3.513,4.268L59.6,67.03a9.442,9.442,0,0,0-3.4-4.13c-2.594-1.788-4.7-.831-5.678.592-1.259,1.851-.68,3.639,1.372,6.937,2.43,3.89,2.9,6.95.705,10.072a7.378,7.378,0,0,1-9.493,2.38l-2.518,3.7Z" transform="translate(-29.317 -47.532)" fill="#cc9005"/>
    </g>
    <path id="Path_32918" data-name="Path 32918" d="M48.947,49.47l3.487,4.167L44.666,80.87,35.74,93.787,46.945,50.88Z" transform="translate(10.14 15.207)" fill="#a97a05"/>
  </g>
</svg>
