<svg xmlns="http://www.w3.org/2000/svg" xmlns:xlink="http://www.w3.org/1999/xlink" width="177.928" height="168.272" viewBox="0 0 177.928 168.272">
  <defs>
    <linearGradient id="linear-gradient" x1="0.5" y1="0.933" x2="0.5" y2="-0.512" gradientUnits="objectBoundingBox">
      <stop offset="0" stop-color="#ebf2fc"/>
      <stop offset="0.64" stop-color="#84adef"/>
    </linearGradient>
    <linearGradient id="linear-gradient-2" x1="0.5" y1="0.933" x2="0.5" y2="-0.512" gradientUnits="objectBoundingBox">
      <stop offset="0" stop-color="#ebf2fc"/>
      <stop offset="0.71" stop-color="#84adef"/>
    </linearGradient>
    <linearGradient id="linear-gradient-3" x1="-36.042" y1="0.5" x2="-35.042" y2="0.5" gradientUnits="objectBoundingBox">
      <stop offset="0" stop-color="#ebf2fc"/>
      <stop offset="1" stop-color="#84adef"/>
    </linearGradient>
    <linearGradient id="linear-gradient-4" x1="-21.921" y1="0.502" x2="-20.921" y2="0.502" xlink:href="#linear-gradient-3"/>
  </defs>
  <g id="_06_-_Compliance-Icon_004" data-name="06 - Compliance-Icon_004" transform="translate(0 0)" style="mix-blend-mode: normal;isolation: isolate">
    <path id="Path_32919" data-name="Path 32919" d="M54.984,88.383l-30.2,15.958V92.718l30.2-15.958Z" transform="translate(17.465 56.936)" fill="#c5d6ff"/>
    <path id="Path_32920" data-name="Path 32920" d="M51.6,85.362,26.55,98.587v-6.5L51.6,78.84Z" transform="translate(18.92 58.645)" fill="#d2e4f9"/>
    <path id="Path_32921" data-name="Path 32921" d="M51.6,78.85l-.018,6.5L26.55,98.579V97.486L50.761,84.68V79.269Z" transform="translate(18.92 58.654)" fill="#84adef"/>
    <path id="Path_32922" data-name="Path 32922" d="M7.1,90.933l32.208,11.313V90.623L7.1,79.31Z" transform="translate(2.937 59.032)" fill="#84adef"/>
    <path id="Path_32923" data-name="Path 32923" d="M7.1,86.508,39.308,97.821l30.2-15.958L37.3,70.55Z" transform="translate(2.937 51.833)" fill="#d2e4f9"/>
    <ellipse id="Ellipse_11896" data-name="Ellipse 11896" cx="1.822" cy="4.518" rx="1.822" ry="4.518" transform="translate(44.353 132.921) rotate(-85.38)" fill="#ff6d38"/>
    <ellipse id="Ellipse_11897" data-name="Ellipse 11897" cx="1.822" cy="4.518" rx="1.822" ry="4.518" transform="translate(36.948 136.698) rotate(-85.38)" fill="#ff6d38"/>
    <ellipse id="Ellipse_11898" data-name="Ellipse 11898" cx="1.822" cy="4.518" rx="1.822" ry="4.518" transform="translate(29.544 140.477) rotate(-85.38)" fill="#fff"/>
    <path id="Path_32924" data-name="Path 32924" d="M94.006,85.888v50.534H1.59V85.888H14.032V65.649H29.954V44.59H65.66V65.649h15.9V85.888Z" transform="translate(-1.59 30.502)" opacity="0.25" fill="url(#linear-gradient)"/>
    <path id="Path_32925" data-name="Path 32925" d="M140.938,85.888v50.534H48.54V85.888H60.964V65.649H76.886V44.59h35.706V65.649h15.922V85.888Z" transform="translate(36.99 30.502)" opacity="0.25" fill="url(#linear-gradient-2)"/>
    <path id="Path_32926" data-name="Path 32926" d="M26.444,79.809,18.956,67.9l5.666-4.026c1.949-1.4,1.822-1.366,1.348-3.643s-.838-4.317-1.166-6.5c-.109-.783-.383-1.093-1.148-1.129-2.131-.091-4.226-.273-6.34-.437a12.169,12.169,0,0,1-1.567-.182c.692-4.9,1.366-9.692,2.077-14.574,2.623.2,5.137.31,7.633.583,1,.109,1.385-.182,1.822-1.166,1.2-2.678,2.569-5.3,3.935-8.088l-5.9-6.285L36.244,11.8a6.321,6.321,0,0,0,.492.838c1.585,1.822,3.206,3.443,4.773,5.192a.929.929,0,0,0,1.33.2c2.459-1.257,4.973-2.459,7.487-3.643a1.148,1.148,0,0,0,.838-1.293c-.109-2.714-.164-5.465-.255-8.234L65.173,3.37c0,2.04.109,4.062.182,6.085,0,1-.237,2.259.255,2.9s1.694.419,2.569.674c1.822.528,3.807,1.075,5.684,1.712a1.038,1.038,0,0,0,1.4-.455c1.621-2.314,3.316-4.591,5.028-6.959l11.185,8.252-5.465,7.469c1.6,2.714,3.115,5.3,4.7,7.833.146.255.8.364,1.184.255,2.2-.583,4.409-1.239,6.595-1.822.364-.109.747-.182,1.293-.31.966,4.682,1.913,9.327,2.878,14.082-2.605.747-5.083,1.512-7.578,2.15-1.02.255-1.275.692-1.366,1.822-.237,2.842-.674,5.684-1.075,8.762l7.706,3.735-6.777,13.39L85.741,69.3l-4.864,4.791-.437.4c-.656.6-1.694,1.129-1.822,1.822s.474,1.6.783,2.386c.747,1.913,1.512,3.826,2.332,5.884L68.471,90.976c-.874-2.2-1.822-4.336-2.605-6.467S65.574,82.687,63.115,83s-4.554.474-6.85.6a1.111,1.111,0,0,0-1.184.947c-.82,2.66-1.658,5.3-2.55,8.088L39,88.991l2.714-8.762-7.742-5.72Zm32.39-50.516c-9.892.874-17.908,10.019-17.853,20.385a16.96,16.96,0,0,0,18.6,17,20.239,20.239,0,0,0,17.853-20.44,16.887,16.887,0,0,0-18.6-16.942Z" transform="translate(10.045 -3.37)" fill="#536dfe"/>
    <path id="Path_32927" data-name="Path 32927" d="M56.186,55.394,62.8,46.9c1.439,1.148,2.86,2.241,4.226,3.388a.984.984,0,0,0,1.457,0c1.476-1.057,3.024-2.059,4.573-3.006a1.075,1.075,0,0,0,.674-1.293c-.31-1.53-.51-3.079-.8-4.609-.146-.747,0-1.111.82-1.293,2.714-.619,5.465-1.275,8.107-1.986.838-.219,1.093,0,1.2.856a43.464,43.464,0,0,0,.783,4.609,1.293,1.293,0,0,0,.911.783c1.712.273,3.461.383,5.174.656a1.129,1.129,0,0,0,1.348-.71c.893-1.712,1.822-3.388,2.805-5.137l8.8,4.645c-.966,1.822-1.822,3.461-2.824,5.137a1.02,1.02,0,0,0,.146,1.476c1.166,1.239,2.277,2.569,3.352,3.917a.911.911,0,0,0,1.312.31c1.712-.8,3.443-1.53,5.283-2.332l3.425,9.6c-1.676.747-3.261,1.512-4.9,2.15a1.548,1.548,0,0,0-1.129,1.822,29.149,29.149,0,0,1,0,4.718c0,.966.237,1.257,1.02,1.476,1.621.437,3.224.984,4.955,1.512l-3.643,10.092c-1.731-.528-3.407-.984-5.064-1.548a1.2,1.2,0,0,0-1.658.583,46.526,46.526,0,0,1-3.188,4.1,1.184,1.184,0,0,0-.182,1.694c.911,1.476,1.822,3.006,2.678,4.664L93.6,99.024c-.929-1.6-1.822-3.115-2.678-4.664a1.057,1.057,0,0,0-1.512-.583c-1.931.565-3.88,1.038-5.921,1.567l-1.166,6.467L72.29,100.682l1.129-6.467c-1.822-1.057-3.643-2.095-5.465-3.042a1.2,1.2,0,0,0-1.038.255c-1.457,1.293-2.9,2.641-4.39,4.026L56,87.875c1.439-1.33,2.787-2.641,4.208-3.862a1.239,1.239,0,0,0,.4-1.676c-.638-1.585-1.2-3.206-1.712-4.864a.911.911,0,0,0-1.111-.765c-1.567.146-3.152.219-4.718.346-.656,0-.929-.109-.911-.838V67.654c0-.911.346-1.111,1.129-1.148,1.512,0,3.006-.219,4.5-.291a1.075,1.075,0,0,0,1.129-.893c.583-1.822,1.2-3.643,1.822-5.319a.893.893,0,0,0-.328-1.239C59.156,57.744,57.717,56.614,56.186,55.394Zm27.235,27.8a14.574,14.574,0,0,0,12.5-14.829A12.169,12.169,0,0,0,82.419,56.5a14.574,14.574,0,0,0-12.533,14.9A12.1,12.1,0,0,0,83.421,83.193Z" transform="translate(39.964 25.108)" fill="#22b573"/>
    <path id="Path_32928" data-name="Path 32928" d="M109.761,20.82c-1.166,1.075-2.2,2.095-3.279,3.042a1.02,1.02,0,0,0-.31,1.385,34.938,34.938,0,0,1,1.275,3.643c.2.619.492.838,1.129.765,1.366-.182,2.751-.31,4.062-.437l.219,8.216c-1.494.164-2.824.364-4.154.419-.8,0-1.093.346-1.312,1.111a28.22,28.22,0,0,1-1.221,3.643c-.273.656-.237,1.038.31,1.439,1.093.8,2.113,1.676,3.224,2.55l-5.174,6.7-3.826-2.969c-1.494.966-2.988,1.822-4.409,2.878a1.166,1.166,0,0,0-.291.966c.182,1.421.455,2.842.711,4.354l-7.925,1.931c-.237-1.4-.528-2.733-.674-4.062,0-.729-.346-1.038-1.075-1.093-1.293,0-2.569-.31-3.88-.383a1.476,1.476,0,0,0-1.02.547c-.765,1.275-1.457,2.623-2.222,4.044L72.944,55.87c.729-1.33,1.366-2.587,2.077-3.807a1.111,1.111,0,0,0-.146-1.585,30.15,30.15,0,0,1-2.441-2.824.838.838,0,0,0-1.221-.273c-1.275.638-2.587,1.166-4.044,1.822-.911-2.5-1.822-4.973-2.751-7.542,1.348-.619,2.587-1.221,3.862-1.822a1.221,1.221,0,0,0,.893-1.385,24.811,24.811,0,0,1,0-3.643,1.057,1.057,0,0,0-.929-1.33c-1.275-.328-2.514-.747-3.844-1.148l2.769-7.961c1.4.419,2.678.838,3.99,1.166a1.4,1.4,0,0,0,1.148-.31c1.057-1.312,2.04-2.7,3.115-4.117L72.98,16.831l6.959-4.645c.747,1.275,1.4,2.478,2.15,3.643A1.293,1.293,0,0,0,83.2,16.3c1.293-.237,2.569-.692,3.862-.947A1.093,1.093,0,0,0,88.1,14.226c.146-1.111.4-2.222.547-3.334,0-.692.346-.966,1.02-.874,2.131.255,4.281.437,6.412.729.237,0,.565.51.547.783-.146,1.184-.383,2.368-.619,3.643a.984.984,0,0,0,.638,1.293c1.385.6,2.678,1.312,4.081,2.022l3.844-3.552ZM98.831,34.246a9.473,9.473,0,0,0-10.256-9.564A11.368,11.368,0,0,0,78.245,36.014a9.455,9.455,0,0,0,10.548,9.71A11.313,11.313,0,0,0,98.831,34.246Z" transform="translate(50.022 2.079)" fill="#ff6d38"/>
    <rect id="Rectangle_8040" data-name="Rectangle 8040" width="25.905" height="25.905" rx="1.43" transform="translate(87.752 142.367)" opacity="0.5" fill="url(#linear-gradient-3)"/>
    <path id="Path_32929" data-name="Path 32929" d="M108.659,88l-36.708-.164A2.951,2.951,0,0,1,69,84.881h0a2.951,2.951,0,0,1,2.933-2.951l36.708.182a2.933,2.933,0,0,1,2.951,2.933h0A2.933,2.933,0,0,1,108.659,88Z" transform="translate(53.802 61.184)" opacity="0.5" fill="url(#linear-gradient-4)"/>
    <path id="Path_32930" data-name="Path 32930" d="M108.659,93.2l-36.708-.164A2.933,2.933,0,0,1,69,90.083h0a2.933,2.933,0,0,1,2.933-2.933l36.708.164a2.933,2.933,0,0,1,2.951,2.951h0A2.933,2.933,0,0,1,108.659,93.2Z" transform="translate(53.802 65.474)" fill="#536dfe"/>
    <path id="Path_32931" data-name="Path 32931" d="M98.876,98.41l-26.925-.182A2.933,2.933,0,0,1,69,95.331h0a2.951,2.951,0,0,1,2.933-2.951l26.925.182a2.933,2.933,0,0,1,2.933,2.9h0a2.951,2.951,0,0,1-2.915,2.951Z" transform="translate(53.802 69.771)" fill="#536dfe"/>
    <ellipse id="Ellipse_11899" data-name="Ellipse 11899" cx="7.578" cy="7.578" rx="7.578" ry="7.578" transform="translate(93.126 147.742)" fill="#536dfe"/>
  </g>
</svg>
