<svg xmlns="http://www.w3.org/2000/svg" xmlns:xlink="http://www.w3.org/1999/xlink" width="170.039" height="161.377" viewBox="0 0 170.039 161.377">
  <defs>
    <linearGradient id="linear-gradient" x1="-0.356" y1="0.22" x2="0.507" y2="0.22" gradientUnits="objectBoundingBox">
      <stop offset="0" stop-color="#ebf2fc"/>
      <stop offset="1" stop-color="#84adef"/>
    </linearGradient>
    <linearGradient id="linear-gradient-2" x1="-0.361" y1="0.398" x2="0.503" y2="0.398" xlink:href="#linear-gradient"/>
  </defs>
  <g id="_07_Nexastack_for_Release_Engineering_No_Configuration_Drift" data-name="07 Nexastack for Release Engineering No Configuration Drift" transform="translate(0.535)" style="mix-blend-mode: normal;isolation: isolate">
    <g id="Group_10444" data-name="Group 10444" transform="translate(3.045 58.446)" opacity="0.79">
      <path id="Path_32968" data-name="Path 32968" d="M12.257,54.321,22.33,44.247q2.695,2.518,5.221,5.037a1.394,1.394,0,0,0,1.964.218c2.149-1.192,4.365-2.267,6.6-3.358a1.377,1.377,0,0,0,1.007-1.679c-.185-2-.252-4.029-.437-6.044-.084-.991.235-1.444,1.31-1.578,3.744-.437,7.471-.907,11.2-1.444,1.175-.185,1.477.151,1.494,1.259a55.94,55.94,0,0,0,.537,6.128,1.8,1.8,0,0,0,1.125,1.158c2.267.571,4.6.957,6.867,1.528a1.545,1.545,0,0,0,1.931-.739c1.427-2.065,2.955-4.113,4.5-6.246l11.2,7.2c-1.545,2.149-2.988,4.214-4.516,6.246a1.31,1.31,0,0,0,0,1.931c1.427,1.78,2.72,3.643,3.979,5.54a1.276,1.276,0,0,0,1.679.571c2.418-.806,4.852-1.511,7.438-2.3,1.091,4.3,2.149,8.479,3.257,12.877-2.367.739-4.617,1.511-6.9,2.115a2.031,2.031,0,0,0-1.88,2.384A34.082,34.082,0,0,1,79.2,81.15c-.252,1.226.151,1.679,1.175,2.048,2.132.772,4.2,1.679,6.464,2.619L80.606,98.291c-2.25-.907-4.449-1.679-6.6-2.686a1.679,1.679,0,0,0-2.334.537,60.755,60.755,0,0,1-4.886,4.869,1.511,1.511,0,0,0-.453,2.166c1.024,2.031,1.931,4.113,2.972,6.38L56.513,115.9c-1.024-2.183-2.048-4.264-2.938-6.38-.4-.94-.907-1.158-1.964-.974-2.686.487-5.373.823-8.193,1.242-.789,2.586-1.679,5.305-2.5,8.193l-13.431-2.837,2.485-8.193c-2.4-1.679-4.667-3.207-7.018-4.684a1.679,1.679,0,0,0-1.444.185c-2.149,1.477-4.264,3.022-6.5,4.617C12.425,103.479,9.974,100,7.321,96.361c2.115-1.511,4.13-3.022,6.212-4.416a1.561,1.561,0,0,0,.756-2.1c-.638-2.132-1.175-4.315-1.679-6.514a1.192,1.192,0,0,0-1.377-1.142c-2.132,0-4.264-.168-6.413-.185-.89,0-1.242-.285-1.108-1.226.487-3.694.94-7.37,1.31-11.047.118-1.175.621-1.41,1.679-1.326,2.031.134,4.08.1,6.111.218a1.461,1.461,0,0,0,1.679-1.007c1.024-2.233,2.115-4.449,3.358-6.615a1.125,1.125,0,0,0-.252-1.679C15.833,57.746,14.137,56.1,12.257,54.321ZM45,93.96A19.425,19.425,0,0,0,63.951,76.5a16.084,16.084,0,0,0-16.5-17.175A19.425,19.425,0,0,0,28.425,76.885,16,16,0,0,0,45,93.96Z" transform="translate(-3.684 -35.352)" opacity="0.54" fill="url(#linear-gradient)"/>
    </g>
    <g id="Group_10445" data-name="Group 10445" transform="translate(70.476 7.675)" opacity="0.79">
      <path id="Path_32969" data-name="Path 32969" d="M52.4,24.081,62.472,14.007c1.78,1.679,3.526,3.358,5.2,4.953a1.394,1.394,0,0,0,1.964.218c2.149-1.192,4.365-2.267,6.6-3.358.823-.369,1.091-.756,1.007-1.578-.185-2.015-.235-4.046-.42-6.061-.084-.991.218-1.444,1.31-1.561q5.591-.655,11.182-1.461c1.175-.185,1.494.151,1.511,1.259a52.049,52.049,0,0,0,.4,6.061,1.679,1.679,0,0,0,1.125,1.158c2.267.571,4.6.957,6.867,1.528a1.528,1.528,0,0,0,1.964-.655c1.461-2.082,2.972-4.113,4.533-6.229l11.2,7.2c-1.545,2.149-3.005,4.214-4.533,6.246a1.326,1.326,0,0,0,0,1.931c1.41,1.78,2.7,3.643,3.962,5.54a1.293,1.293,0,0,0,1.679.571c2.418-.806,4.852-1.511,7.438-2.3,1.075,4.3,2.149,8.5,3.257,12.877-2.367.739-4.617,1.528-6.9,2.115a2.032,2.032,0,0,0-1.813,2.3,34.114,34.114,0,0,1-.722,6.094c-.235,1.226.151,1.679,1.192,2.048,2.115.789,4.2,1.679,6.447,2.619l-6.212,12.558c-2.267-.907-4.466-1.679-6.6-2.686a1.679,1.679,0,0,0-2.334.537A60.758,60.758,0,0,1,106.9,70.8a1.528,1.528,0,0,0-.487,2.166c1.024,2.031,1.931,4.113,2.972,6.38L96.654,85.663c-1.024-2.183-2.048-4.264-2.955-6.38-.386-.94-.907-1.158-1.948-.974-2.686.487-5.389.839-8.193,1.242-.839,2.6-1.629,5.305-2.518,8.193L67.609,84.908l2.434-8.193c-2.4-1.679-4.684-3.207-7.035-4.684a1.679,1.679,0,0,0-1.427.2c-2.166,1.461-4.281,3.005-6.5,4.6L47.462,66.138c2.132-1.528,4.13-3.039,6.212-4.432a1.561,1.561,0,0,0,.789-2.1c-.655-2.132-1.175-4.315-1.679-6.514a1.192,1.192,0,0,0-1.377-1.142c-2.149,0-4.281-.151-6.413-.185-.907,0-1.242-.285-1.125-1.226.487-3.677.94-7.37,1.326-11.047.118-1.175.621-1.41,1.679-1.326,2.015.134,4.063.1,6.094.218a1.444,1.444,0,0,0,1.679-1.007c1.024-2.233,2.132-4.449,3.358-6.615a1.125,1.125,0,0,0-.252-1.679C55.991,27.506,54.278,25.86,52.4,24.081ZM85.154,63.686a19.442,19.442,0,0,0,18.955-17.41A16.1,16.1,0,0,0,87.588,29.084,19.408,19.408,0,0,0,68.583,46.645,15.983,15.983,0,0,0,85.154,63.686Z" transform="translate(-43.847 -5.112)" opacity="0.54" fill="url(#linear-gradient-2)"/>
    </g>
    <path id="Path_32970" data-name="Path 32970" d="M92.643,88.982,44.34,114.5V95.9l48.3-25.52Z" transform="translate(26.964 46.875)" fill="#c5d6ff"/>
    <path id="Path_32971" data-name="Path 32971" d="M87.469,84.392,47.41,105.58V95.171L87.486,74Z" transform="translate(29.048 49.333)" fill="#d2e4f9"/>
    <path id="Path_32972" data-name="Path 32972" d="M87.476,74V84.392L47.4,105.58v-1.763L86.15,83.352V74.688Z" transform="translate(29.042 49.333)" fill="#84adef"/>
    <path id="Path_32973" data-name="Path 32973" d="M13.66,93.4l51.509,18.1V92.9L13.66,74.8Z" transform="translate(6.135 49.876)" fill="#84adef"/>
    <path id="Path_32974" data-name="Path 32974" d="M13.66,85.119l51.509,18.1,48.3-25.519L61.946,59.6Z" transform="translate(6.135 39.557)" fill="#d2e4f9"/>
    <ellipse id="Ellipse_11908" data-name="Ellipse 11908" cx="2.921" cy="7.219" rx="2.921" ry="7.219" transform="translate(74.683 116.014) rotate(-85.38)" fill="#ff6d38"/>
    <ellipse id="Ellipse_11909" data-name="Ellipse 11909" cx="2.921" cy="7.219" rx="2.921" ry="7.219" transform="translate(62.829 122.053) rotate(-85.38)" fill="#22b573"/>
    <ellipse id="Ellipse_11910" data-name="Ellipse 11910" cx="2.921" cy="7.219" rx="2.921" ry="7.219" transform="translate(50.957 128.092) rotate(-85.38)" fill="#22b573"/>
    <path id="Path_32975" data-name="Path 32975" d="M122.356,60.4,74.07,85.905V67.319L122.356,41.8Z" transform="translate(47.148 27.472)" fill="#c5d6ff"/>
    <path id="Path_32976" data-name="Path 32976" d="M117.182,55.819,77.14,77.007V66.6L117.2,45.41Z" transform="translate(49.233 29.923)" fill="#d2e4f9"/>
    <path id="Path_32977" data-name="Path 32977" d="M117.189,45.42V55.812L77.13,76.984V75.238l38.733-20.483V46.108Z" transform="translate(49.226 29.93)" fill="#84adef"/>
    <path id="Path_32978" data-name="Path 32978" d="M43.38,64.806,94.906,82.9V64.319L43.38,46.22Z" transform="translate(26.312 30.473)" fill="#84adef"/>
    <path id="Path_32979" data-name="Path 32979" d="M43.38,56.539l51.526,18.1,48.286-25.519L91.683,31.02Z" transform="translate(26.312 20.153)" fill="#d2e4f9"/>
    <ellipse id="Ellipse_11911" data-name="Ellipse 11911" cx="2.921" cy="7.219" rx="2.921" ry="7.219" transform="translate(124.593 68.021) rotate(-85.38)" fill="#ff6d38"/>
    <ellipse id="Ellipse_11912" data-name="Ellipse 11912" cx="2.921" cy="7.219" rx="2.921" ry="7.219" transform="translate(112.738 74.077) rotate(-85.38)" fill="#22b573"/>
    <ellipse id="Ellipse_11913" data-name="Ellipse 11913" cx="2.921" cy="7.219" rx="2.921" ry="7.219" transform="translate(100.866 80.116) rotate(-85.38)" fill="#22b573"/>
    <path id="Path_32980" data-name="Path 32980" d="M27.9,5H91.145V52.916L78.889,40.66H27.9Z" transform="translate(15.803 2.488)" fill="none" stroke="#22b573" stroke-width="1.04"/>
    <path id="Path_32981" data-name="Path 32981" d="M1.87,29.74H65.115V77.656L52.859,65.4H1.87Z" transform="translate(-1.87 19.284)" fill="none" stroke="#ff6d38" stroke-width="1.07"/>
    <path id="Path_32982" data-name="Path 32982" d="M23.954,51.859h-14L8.39,14.99H25.5Z" transform="translate(2.557 9.27)" fill="#ff6d38"/>
    <rect id="Rectangle_8044" data-name="Rectangle 8044" width="14.069" height="10.493" transform="translate(12.475 65.008)" fill="#ff6d38"/>
    <path id="Path_32983" data-name="Path 32983" d="M44.5,14.542,34.93,26.966,53,37.627,75.375.54,53.163,24.465Z" transform="translate(20.575 -0.54)" fill="#22b573"/>
  </g>
</svg>
