<svg xmlns="http://www.w3.org/2000/svg" xmlns:xlink="http://www.w3.org/1999/xlink" width="60.13" height="59.48" viewBox="0 0 60.13 59.48">
  <defs>
    <linearGradient id="linear-gradient" y1="0.5" x2="0.998" y2="0.5" gradientUnits="objectBoundingBox">
      <stop offset="0" stop-color="#00be84"/>
      <stop offset="1" stop-color="#1de885"/>
    </linearGradient>
    <linearGradient id="linear-gradient-3" y1="0.5" x2="0.998" y2="0.5" gradientUnits="objectBoundingBox">
      <stop offset="0" stop-color="#4279e8"/>
      <stop offset="1" stop-color="#42c2e8"/>
    </linearGradient>
    <linearGradient id="linear-gradient-4" x1="0" y1="0.5" x2="1" y2="0.5" xlink:href="#linear-gradient-3"/>
    <linearGradient id="linear-gradient-5" y1="0.502" x2="1.001" y2="0.502" gradientUnits="objectBoundingBox">
      <stop offset="0" stop-color="#d35400"/>
      <stop offset="1" stop-color="#ffb62d"/>
    </linearGradient>
    <linearGradient id="linear-gradient-6" x1="0" y1="0.5" x2="1" y2="0.5" xlink:href="#linear-gradient"/>
    <linearGradient id="linear-gradient-8" x1="11.494" y1="-24.942" x2="12.493" y2="-24.942" xlink:href="#linear-gradient-5"/>
    <linearGradient id="linear-gradient-9" x1="42.204" y1="-26.891" x2="43.204" y2="-26.891" xlink:href="#linear-gradient-5"/>
  </defs>
  <g id="Solution_main_page_illustration_Dummy_Icon-Digital_Service_Platform_and_Services" data-name="Solution main page_illustration Dummy_Icon-Digital Service Platform and Services" style="mix-blend-mode: normal;isolation: isolate">
    <rect id="Rectangle_5341" data-name="Rectangle 5341" width="10.62" height="9.45" transform="translate(0 50.03)" fill="#ccc"/>
    <rect id="Rectangle_5342" data-name="Rectangle 5342" width="8.35" height="7.43" transform="translate(1.14 51.04)" fill="#e6e6e6"/>
    <rect id="Rectangle_5343" data-name="Rectangle 5343" width="2.09" height="9.45" transform="translate(10.62 50.03)" fill="#b3b3b3"/>
    <circle id="Ellipse_2209" data-name="Ellipse 2209" cx="2.21" cy="2.21" r="2.21" transform="translate(3.1 52.55)" fill="url(#linear-gradient)"/>
    <rect id="Rectangle_5344" data-name="Rectangle 5344" width="10.62" height="9.45" transform="translate(15.81 50.03)" fill="#ccc"/>
    <rect id="Rectangle_5345" data-name="Rectangle 5345" width="8.35" height="7.43" transform="translate(16.94 51.04)" fill="#e6e6e6"/>
    <rect id="Rectangle_5346" data-name="Rectangle 5346" width="2.09" height="9.45" transform="translate(26.42 50.03)" fill="#b3b3b3"/>
    <circle id="Ellipse_2210" data-name="Ellipse 2210" cx="2.21" cy="2.21" r="2.21" transform="translate(18.91 52.55)" fill="url(#linear-gradient)"/>
    <rect id="Rectangle_5347" data-name="Rectangle 5347" width="10.62" height="9.45" transform="translate(31.61 50.03)" fill="#ccc"/>
    <rect id="Rectangle_5348" data-name="Rectangle 5348" width="8.35" height="7.43" transform="translate(32.75 51.04)" fill="#e6e6e6"/>
    <rect id="Rectangle_5349" data-name="Rectangle 5349" width="2.09" height="9.45" transform="translate(42.23 50.03)" fill="#b3b3b3"/>
    <circle id="Ellipse_2211" data-name="Ellipse 2211" cx="2.21" cy="2.21" r="2.21" transform="translate(34.71 52.55)" fill="#f13624"/>
    <rect id="Rectangle_5350" data-name="Rectangle 5350" width="10.62" height="9.45" transform="translate(47.42 50.03)" fill="#ccc"/>
    <rect id="Rectangle_5351" data-name="Rectangle 5351" width="8.35" height="7.43" transform="translate(48.55 51.04)" fill="#e6e6e6"/>
    <rect id="Rectangle_5352" data-name="Rectangle 5352" width="2.09" height="9.45" transform="translate(58.04 50.03)" fill="#b3b3b3"/>
    <circle id="Ellipse_2212" data-name="Ellipse 2212" cx="2.21" cy="2.21" r="2.21" transform="translate(50.52 52.55)" fill="url(#linear-gradient-3)"/>
    <path id="Path_24364" data-name="Path 24364" d="M6.11,29.35H59.83a3.2,3.2,0,0,1,3.2,3.2V50.17H2.91V32.55a3.2,3.2,0,0,1,3.2-3.2Z" transform="translate(-2.91 -2.16)" fill="#e6ecf4"/>
    <path id="Path_24365" data-name="Path 24365" d="M63,32.55v3.06H2.91V32.55a3.2,3.2,0,0,1,3.2-3.2H59.83A3.2,3.2,0,0,1,63,32.55Z" transform="translate(-2.91 -2.16)" fill="url(#linear-gradient-4)"/>
    <circle id="Ellipse_2213" data-name="Ellipse 2213" cx="1.1" cy="1.1" r="1.1" transform="translate(55.64 29.22)" fill="#fff"/>
    <circle id="Ellipse_2214" data-name="Ellipse 2214" cx="1.1" cy="1.1" r="1.1" transform="translate(52.03 29.22)" fill="#fff"/>
    <circle id="Ellipse_2215" data-name="Ellipse 2215" cx="1.1" cy="1.1" r="1.1" transform="translate(48.41 29.22)" fill="#fff"/>
    <path id="Path_24366" data-name="Path 24366" d="M8.9,49l.77-.37a.27.27,0,0,0,.14-.32l-.4-1.21a5.34,5.34,0,0,0,1.5-1.67l1.3.36a.27.27,0,0,0,.32-.15l.32-.79a.25.25,0,0,0-.11-.33l-1.23-.7h0a4.62,4.62,0,0,0,.09-1.17,4.85,4.85,0,0,0-.15-1.08h0l1.18-.79a.26.26,0,0,0,.1-.34l-.39-.76a.25.25,0,0,0-.32-.12L10.77,40a5.29,5.29,0,0,0-1.71-1.65l.34-1.32a.26.26,0,0,0-.16-.31l-.79-.31a.26.26,0,0,0-.33.13l-.63,1.18a4.79,4.79,0,0,0-1.06-.12v2.62A2.61,2.61,0,0,1,9,42.76v.09a2.61,2.61,0,0,1-2.52,2.61h0V48.1h.1a5.23,5.23,0,0,0,1.37-.22l.66,1A.26.26,0,0,0,8.9,49Z" transform="translate(-2.91 -2.16)" fill="url(#linear-gradient-5)"/>
    <rect id="Rectangle_5353" data-name="Rectangle 5353" width="45.09" height="2.12" transform="translate(11.65 35.76)" fill="url(#linear-gradient-6)"/>
    <rect id="Rectangle_5354" data-name="Rectangle 5354" width="26.72" height="2.12" transform="translate(11.65 39.36)" fill="#fff"/>
    <rect id="Rectangle_5355" data-name="Rectangle 5355" width="38.96" height="2.12" transform="translate(11.65 43.25)" fill="url(#linear-gradient-6)"/>
    <rect id="Rectangle_5356" data-name="Rectangle 5356" width="13.68" height="6.4" transform="translate(7.75) rotate(90)" fill="#1759ba"/>
    <rect id="Rectangle_5357" data-name="Rectangle 5357" width="7.86" height="6.4" transform="translate(7.76 16.99) rotate(90)" fill="#f13624"/>
    <rect id="Rectangle_5358" data-name="Rectangle 5358" width="7.68" height="6.4" transform="translate(57.24 16.99) rotate(90)" fill="#00be84"/>
    <rect id="Rectangle_5359" data-name="Rectangle 5359" width="17.86" height="6.4" transform="translate(20.19 6.84) rotate(90)" fill="#1759ba"/>
    <rect id="Rectangle_5360" data-name="Rectangle 5360" width="13.68" height="6.4" transform="translate(32.62 3.7) rotate(90)" fill="url(#linear-gradient-8)"/>
    <rect id="Rectangle_5361" data-name="Rectangle 5361" width="3.43" height="6.4" transform="translate(32.62 21.3) rotate(90)" fill="url(#linear-gradient-9)"/>
    <rect id="Rectangle_5362" data-name="Rectangle 5362" width="10.54" height="6.4" transform="translate(45.05 0) rotate(90)" fill="#1759ba"/>
    <rect id="Rectangle_5363" data-name="Rectangle 5363" width="12.08" height="6.4" transform="translate(45.05 12.62) rotate(90)" fill="#1759ba"/>
  </g>
</svg>
