<svg xmlns="http://www.w3.org/2000/svg" width="69.881" height="86.601" viewBox="0 0 69.881 86.601">
  <g id="Page-1" style="mix-blend-mode: normal;isolation: isolate">
    <g id="Artboard-Copy" transform="translate(0)">
      <g id="Group-2">
        <path id="Combined-Shape-Copy-5" d="M31.235,0a1.81,1.81,0,0,1,1.81,1.81V13.033a5.188,5.188,0,1,1,0,8.69v9.408a1.81,1.81,0,0,1-1.81,1.81h-9.11a6.143,6.143,0,0,1,.7,2.849,6.295,6.295,0,0,1-12.589,0,6.143,6.143,0,0,1,.7-2.849H1.81A1.81,1.81,0,0,1,0,31.131V1.81A1.81,1.81,0,0,1,1.81,0Z" transform="translate(69.881 21.865) rotate(90)" fill="#feca47" fill-rule="evenodd"/>
        <g id="Group">
          <path id="Combined-Shape" d="M30.037,0a1.757,1.757,0,0,1,1.757,1.757v8.756a6.056,6.056,0,1,1,0,10.768V30.29a1.757,1.757,0,0,1-1.757,1.757H21.4a6.056,6.056,0,1,1-10.491,0H1.757A1.757,1.757,0,0,1,0,30.29V1.757A1.757,1.757,0,0,1,1.757,0Z" transform="translate(0)" fill="#8852ff" fill-rule="evenodd"/>
          <path id="Combined-Shape-2" data-name="Combined-Shape" d="M23.144,53.208a6.06,6.06,0,0,1,5.711,8.075h8.681a1.757,1.757,0,0,1,1.757,1.757V91.573a1.757,1.757,0,0,1-1.757,1.757H9a1.757,1.757,0,0,1-1.757-1.757V63.04A1.757,1.757,0,0,1,9,61.283h8.428a6.06,6.06,0,0,1,5.711-8.075Z" transform="translate(-1.033 -7.585)" fill="#4de8ee" fill-rule="evenodd"/>
          <path id="Combined-Shape-Copy" d="M30.037,0a1.757,1.757,0,0,1,1.757,1.757v9.756a6.056,6.056,0,1,1,0,10.786v7.99a1.757,1.757,0,0,1-1.757,1.757H21.288a6.056,6.056,0,1,1-10.772,0H1.757A1.757,1.757,0,0,1,0,30.29V1.757A1.757,1.757,0,0,1,1.757,0Z" transform="translate(69.453 85.892) rotate(179)" fill="#fd0057" fill-rule="evenodd"/>
        </g>
      </g>
    </g>
  </g>
</svg>
