<svg xmlns="http://www.w3.org/2000/svg" xmlns:xlink="http://www.w3.org/1999/xlink" width="60.119" height="59.808" viewBox="0 0 60.119 59.808">
  <defs>
    <linearGradient id="linear-gradient" y1="0.5" x2="1" y2="0.5" gradientUnits="objectBoundingBox">
      <stop offset="0" stop-color="#4279e8"/>
      <stop offset="1" stop-color="#42d9e8"/>
    </linearGradient>
    <linearGradient id="linear-gradient-2" y1="0.5" x2="1" y2="0.5" gradientUnits="objectBoundingBox">
      <stop offset="0" stop-color="#3dba85"/>
      <stop offset="1" stop-color="#1de885"/>
    </linearGradient>
    <linearGradient id="linear-gradient-4" x1="0" y1="0.5" y2="0.5" xlink:href="#linear-gradient"/>
    <linearGradient id="linear-gradient-6" x1="0" y1="0.5" y2="0.5" xlink:href="#linear-gradient"/>
  </defs>
  <g id="Xenonstack-Cloud-Native_001_05-1st_Section-Icon-Section-Secure_and_Resilient_Applications" data-name="Xenonstack-Cloud-Native_001_05-1st Section-Icon-Section-Secure and Resilient Applications" style="mix-blend-mode: normal;isolation: isolate">
    <path id="Path_14321" data-name="Path 14321" d="M13.269,77.56,2.18,78.626,15.369,98.334Z" transform="translate(-2.18 -38.527)" fill="url(#linear-gradient)"/>
    <path id="Path_14322" data-name="Path 14322" d="M22.64,53.913l2.553,25.24,46.93-10.637L67.3,37.61,56.807,39.877l-4.819,9.077Z" transform="translate(-12.003 -19.346)" fill="#dfeaef"/>
    <path id="Path_14323" data-name="Path 14323" d="M32.38,2.48s-2.391,8.5-16.21,8.5c0,0,2,24.149,16.21,26.982" transform="translate(-8.897 -2.48)" fill="url(#linear-gradient-2)"/>
    <path id="Path_14324" data-name="Path 14324" d="M47.35,2.48s2.417,8.5,16.2,8.5c0,0-1.991,24.149-16.2,26.982" transform="translate(-23.867 -2.48)" fill="url(#linear-gradient-2)"/>
    <path id="Path_14325" data-name="Path 14325" d="M30.17,71.261,67.264,64.44l.338,2.4L30.17,73.7Z" transform="translate(-15.619 -32.228)" fill="url(#linear-gradient-4)"/>
    <path id="Path_14326" data-name="Path 14326" d="M31.76,80.816,68.854,73.99l.338,2.4L31.76,83.254Z" transform="translate(-16.382 -36.813)" fill="url(#linear-gradient)"/>
    <path id="Path_14327" data-name="Path 14327" d="M33.34,92.887l22.09-4.1.338,2.4L33.34,95.325Z" transform="translate(-17.14 -43.918)" fill="url(#linear-gradient-6)"/>
  </g>
</svg>
